ISO-10303-21;
HEADER;
/* Generated by software containing ST-Developer
 * from STEP Tools, Inc. (www.steptools.com) 
 */

FILE_DESCRIPTION(
/* description */ (''),
/* implementation_level */ '2;1');

FILE_NAME(
/* name */ 'UGV_Rover_lidar_mounting_plate.step.step',
/* time_stamp */ '2026-02-23T20:44:47+01:00',
/* author */ (''),
/* organization */ (''),
/* preprocessor_version */ 'ST-DEVELOPER v20.1',
/* originating_system */ 'Autodesk Translation Framework v14.24.0.0',
/* authorisation */ '');

FILE_SCHEMA (('AUTOMOTIVE_DESIGN { 1 0 10303 214 3 1 1 }'));
ENDSEC;

DATA;
#10=MECHANICAL_DESIGN_GEOMETRIC_PRESENTATION_REPRESENTATION('',(#13),#1435);
#11=SHAPE_REPRESENTATION_RELATIONSHIP('SRR','None',#1442,#12);
#12=ADVANCED_BREP_SHAPE_REPRESENTATION('',(#14),#1434);
#13=STYLED_ITEM('',(#1452),#14);
#14=MANIFOLD_SOLID_BREP('Body1',#815);
#15=CYLINDRICAL_SURFACE('',#858,2.);
#16=CYLINDRICAL_SURFACE('',#863,2.);
#17=CYLINDRICAL_SURFACE('',#868,2.);
#18=CYLINDRICAL_SURFACE('',#873,2.);
#19=CYLINDRICAL_SURFACE('',#895,1.25);
#20=CYLINDRICAL_SURFACE('',#896,1.25);
#21=CYLINDRICAL_SURFACE('',#897,1.25);
#22=CYLINDRICAL_SURFACE('',#898,1.);
#23=CYLINDRICAL_SURFACE('',#904,1.);
#24=CYLINDRICAL_SURFACE('',#909,1.);
#25=CYLINDRICAL_SURFACE('',#914,1.);
#26=CYLINDRICAL_SURFACE('',#918,3.);
#27=CYLINDRICAL_SURFACE('',#920,3.);
#28=CYLINDRICAL_SURFACE('',#922,3.);
#29=CYLINDRICAL_SURFACE('',#924,3.);
#30=CYLINDRICAL_SURFACE('',#925,1.5);
#31=CYLINDRICAL_SURFACE('',#926,1.5);
#32=CYLINDRICAL_SURFACE('',#927,1.5);
#33=CYLINDRICAL_SURFACE('',#928,1.5);
#34=CYLINDRICAL_SURFACE('',#929,1.5);
#35=CYLINDRICAL_SURFACE('',#930,1.5);
#36=CYLINDRICAL_SURFACE('',#931,1.5);
#37=CYLINDRICAL_SURFACE('',#932,1.5);
#38=CYLINDRICAL_SURFACE('',#933,1.5);
#39=CYLINDRICAL_SURFACE('',#934,1.5);
#40=CYLINDRICAL_SURFACE('',#935,1.5);
#41=CYLINDRICAL_SURFACE('',#936,1.5);
#42=CYLINDRICAL_SURFACE('',#937,1.25);
#43=TOROIDAL_SURFACE('',#854,6.,2.);
#44=TOROIDAL_SURFACE('',#860,6.,2.);
#45=TOROIDAL_SURFACE('',#865,6.,2.);
#46=TOROIDAL_SURFACE('',#870,6.,2.);
#47=TOROIDAL_SURFACE('',#901,2.,1.);
#48=TOROIDAL_SURFACE('',#906,2.,1.);
#49=TOROIDAL_SURFACE('',#911,2.,1.);
#50=TOROIDAL_SURFACE('',#916,2.,1.);
#51=FACE_BOUND('',#128,.T.);
#52=FACE_BOUND('',#129,.T.);
#53=FACE_BOUND('',#130,.T.);
#54=FACE_BOUND('',#131,.T.);
#55=FACE_BOUND('',#132,.T.);
#56=FACE_BOUND('',#133,.T.);
#57=FACE_BOUND('',#134,.T.);
#58=FACE_BOUND('',#135,.T.);
#59=FACE_BOUND('',#136,.T.);
#60=FACE_BOUND('',#137,.T.);
#61=FACE_BOUND('',#138,.T.);
#62=FACE_BOUND('',#139,.T.);
#63=FACE_BOUND('',#140,.T.);
#64=FACE_BOUND('',#141,.T.);
#65=FACE_BOUND('',#142,.T.);
#66=FACE_BOUND('',#143,.T.);
#67=FACE_BOUND('',#144,.T.);
#68=FACE_BOUND('',#154,.T.);
#69=FACE_BOUND('',#155,.T.);
#70=FACE_BOUND('',#156,.T.);
#71=FACE_BOUND('',#157,.T.);
#72=FACE_BOUND('',#158,.T.);
#73=FACE_BOUND('',#159,.T.);
#74=FACE_BOUND('',#160,.T.);
#75=FACE_BOUND('',#161,.T.);
#76=FACE_BOUND('',#162,.T.);
#77=FACE_BOUND('',#163,.T.);
#78=FACE_BOUND('',#164,.T.);
#79=FACE_BOUND('',#165,.T.);
#80=FACE_BOUND('',#166,.T.);
#81=FACE_BOUND('',#167,.T.);
#82=FACE_BOUND('',#168,.T.);
#83=FACE_BOUND('',#169,.T.);
#84=FACE_BOUND('',#170,.T.);
#85=FACE_OUTER_BOUND('',#127,.T.);
#86=FACE_OUTER_BOUND('',#145,.T.);
#87=FACE_OUTER_BOUND('',#146,.T.);
#88=FACE_OUTER_BOUND('',#147,.T.);
#89=FACE_OUTER_BOUND('',#148,.T.);
#90=FACE_OUTER_BOUND('',#149,.T.);
#91=FACE_OUTER_BOUND('',#150,.T.);
#92=FACE_OUTER_BOUND('',#151,.T.);
#93=FACE_OUTER_BOUND('',#152,.T.);
#94=FACE_OUTER_BOUND('',#153,.T.);
#95=FACE_OUTER_BOUND('',#171,.T.);
#96=FACE_OUTER_BOUND('',#172,.T.);
#97=FACE_OUTER_BOUND('',#173,.T.);
#98=FACE_OUTER_BOUND('',#174,.T.);
#99=FACE_OUTER_BOUND('',#175,.T.);
#100=FACE_OUTER_BOUND('',#176,.T.);
#101=FACE_OUTER_BOUND('',#177,.T.);
#102=FACE_OUTER_BOUND('',#178,.T.);
#103=FACE_OUTER_BOUND('',#179,.T.);
#104=FACE_OUTER_BOUND('',#180,.T.);
#105=FACE_OUTER_BOUND('',#181,.T.);
#106=FACE_OUTER_BOUND('',#182,.T.);
#107=FACE_OUTER_BOUND('',#183,.T.);
#108=FACE_OUTER_BOUND('',#184,.T.);
#109=FACE_OUTER_BOUND('',#185,.T.);
#110=FACE_OUTER_BOUND('',#186,.T.);
#111=FACE_OUTER_BOUND('',#187,.T.);
#112=FACE_OUTER_BOUND('',#188,.T.);
#113=FACE_OUTER_BOUND('',#189,.T.);
#114=FACE_OUTER_BOUND('',#190,.T.);
#115=FACE_OUTER_BOUND('',#191,.T.);
#116=FACE_OUTER_BOUND('',#192,.T.);
#117=FACE_OUTER_BOUND('',#193,.T.);
#118=FACE_OUTER_BOUND('',#194,.T.);
#119=FACE_OUTER_BOUND('',#195,.T.);
#120=FACE_OUTER_BOUND('',#196,.T.);
#121=FACE_OUTER_BOUND('',#197,.T.);
#122=FACE_OUTER_BOUND('',#198,.T.);
#123=FACE_OUTER_BOUND('',#199,.T.);
#124=FACE_OUTER_BOUND('',#200,.T.);
#125=FACE_OUTER_BOUND('',#201,.T.);
#126=FACE_OUTER_BOUND('',#202,.T.);
#127=EDGE_LOOP('',(#543,#544,#545,#546,#547,#548,#549,#550));
#128=EDGE_LOOP('',(#551));
#129=EDGE_LOOP('',(#552));
#130=EDGE_LOOP('',(#553));
#131=EDGE_LOOP('',(#554));
#132=EDGE_LOOP('',(#555));
#133=EDGE_LOOP('',(#556));
#134=EDGE_LOOP('',(#557));
#135=EDGE_LOOP('',(#558));
#136=EDGE_LOOP('',(#559));
#137=EDGE_LOOP('',(#560));
#138=EDGE_LOOP('',(#561));
#139=EDGE_LOOP('',(#562));
#140=EDGE_LOOP('',(#563));
#141=EDGE_LOOP('',(#564));
#142=EDGE_LOOP('',(#565));
#143=EDGE_LOOP('',(#566));
#144=EDGE_LOOP('',(#567,#568,#569,#570,#571,#572,#573,#574));
#145=EDGE_LOOP('',(#575,#576,#577,#578));
#146=EDGE_LOOP('',(#579,#580,#581,#582));
#147=EDGE_LOOP('',(#583,#584,#585,#586));
#148=EDGE_LOOP('',(#587,#588,#589,#590));
#149=EDGE_LOOP('',(#591,#592,#593,#594));
#150=EDGE_LOOP('',(#595,#596,#597,#598));
#151=EDGE_LOOP('',(#599,#600,#601,#602));
#152=EDGE_LOOP('',(#603,#604,#605,#606));
#153=EDGE_LOOP('',(#607,#608,#609,#610,#611,#612,#613,#614));
#154=EDGE_LOOP('',(#615));
#155=EDGE_LOOP('',(#616));
#156=EDGE_LOOP('',(#617));
#157=EDGE_LOOP('',(#618));
#158=EDGE_LOOP('',(#619));
#159=EDGE_LOOP('',(#620));
#160=EDGE_LOOP('',(#621));
#161=EDGE_LOOP('',(#622));
#162=EDGE_LOOP('',(#623));
#163=EDGE_LOOP('',(#624));
#164=EDGE_LOOP('',(#625));
#165=EDGE_LOOP('',(#626));
#166=EDGE_LOOP('',(#627));
#167=EDGE_LOOP('',(#628));
#168=EDGE_LOOP('',(#629));
#169=EDGE_LOOP('',(#630));
#170=EDGE_LOOP('',(#631,#632,#633,#634,#635,#636,#637,#638));
#171=EDGE_LOOP('',(#639,#640,#641,#642));
#172=EDGE_LOOP('',(#643,#644,#645,#646));
#173=EDGE_LOOP('',(#647,#648,#649,#650));
#174=EDGE_LOOP('',(#651,#652,#653,#654));
#175=EDGE_LOOP('',(#655,#656,#657,#658));
#176=EDGE_LOOP('',(#659,#660,#661,#662));
#177=EDGE_LOOP('',(#663,#664,#665,#666));
#178=EDGE_LOOP('',(#667,#668,#669,#670));
#179=EDGE_LOOP('',(#671,#672,#673,#674));
#180=EDGE_LOOP('',(#675,#676,#677,#678));
#181=EDGE_LOOP('',(#679,#680,#681,#682));
#182=EDGE_LOOP('',(#683,#684,#685,#686));
#183=EDGE_LOOP('',(#687,#688,#689,#690));
#184=EDGE_LOOP('',(#691,#692,#693,#694));
#185=EDGE_LOOP('',(#695,#696,#697,#698));
#186=EDGE_LOOP('',(#699,#700,#701,#702));
#187=EDGE_LOOP('',(#703,#704,#705,#706));
#188=EDGE_LOOP('',(#707,#708,#709,#710));
#189=EDGE_LOOP('',(#711,#712,#713,#714));
#190=EDGE_LOOP('',(#715,#716,#717,#718));
#191=EDGE_LOOP('',(#719,#720,#721,#722));
#192=EDGE_LOOP('',(#723,#724,#725,#726));
#193=EDGE_LOOP('',(#727,#728,#729,#730));
#194=EDGE_LOOP('',(#731,#732,#733,#734));
#195=EDGE_LOOP('',(#735,#736,#737,#738));
#196=EDGE_LOOP('',(#739,#740,#741,#742));
#197=EDGE_LOOP('',(#743,#744,#745,#746));
#198=EDGE_LOOP('',(#747,#748,#749,#750));
#199=EDGE_LOOP('',(#751,#752,#753,#754));
#200=EDGE_LOOP('',(#755,#756,#757,#758));
#201=EDGE_LOOP('',(#759,#760,#761,#762));
#202=EDGE_LOOP('',(#763,#764,#765,#766));
#203=LINE('',#1211,#247);
#204=LINE('',#1215,#248);
#205=LINE('',#1219,#249);
#206=LINE('',#1222,#250);
#207=LINE('',#1259,#251);
#208=LINE('',#1263,#252);
#209=LINE('',#1267,#253);
#210=LINE('',#1270,#254);
#211=LINE('',#1280,#255);
#212=LINE('',#1288,#256);
#213=LINE('',#1296,#257);
#214=LINE('',#1302,#258);
#215=LINE('',#1306,#259);
#216=LINE('',#1310,#260);
#217=LINE('',#1314,#261);
#218=LINE('',#1318,#262);
#219=LINE('',#1353,#263);
#220=LINE('',#1355,#264);
#221=LINE('',#1357,#265);
#222=LINE('',#1363,#266);
#223=LINE('',#1371,#267);
#224=LINE('',#1379,#268);
#225=LINE('',#1387,#269);
#226=LINE('',#1391,#270);
#227=LINE('',#1392,#271);
#228=LINE('',#1394,#272);
#229=LINE('',#1396,#273);
#230=LINE('',#1398,#274);
#231=LINE('',#1400,#275);
#232=LINE('',#1401,#276);
#233=LINE('',#1404,#277);
#234=LINE('',#1406,#278);
#235=LINE('',#1408,#279);
#236=LINE('',#1410,#280);
#237=LINE('',#1412,#281);
#238=LINE('',#1414,#282);
#239=LINE('',#1416,#283);
#240=LINE('',#1418,#284);
#241=LINE('',#1420,#285);
#242=LINE('',#1422,#286);
#243=LINE('',#1424,#287);
#244=LINE('',#1426,#288);
#245=LINE('',#1428,#289);
#246=LINE('',#1430,#290);
#247=VECTOR('',#945,10.);
#248=VECTOR('',#948,10.);
#249=VECTOR('',#951,10.);
#250=VECTOR('',#954,10.);
#251=VECTOR('',#989,10.);
#252=VECTOR('',#992,10.);
#253=VECTOR('',#995,10.);
#254=VECTOR('',#998,10.);
#255=VECTOR('',#1011,10.);
#256=VECTOR('',#1022,10.);
#257=VECTOR('',#1033,10.);
#258=VECTOR('',#1042,10.);
#259=VECTOR('',#1045,10.);
#260=VECTOR('',#1048,10.);
#261=VECTOR('',#1051,10.);
#262=VECTOR('',#1054,10.);
#263=VECTOR('',#1091,1.25);
#264=VECTOR('',#1094,1.25);
#265=VECTOR('',#1097,1.25);
#266=VECTOR('',#1104,10.);
#267=VECTOR('',#1115,10.);
#268=VECTOR('',#1126,10.);
#269=VECTOR('',#1137,10.);
#270=VECTOR('',#1144,10.);
#271=VECTOR('',#1145,10.);
#272=VECTOR('',#1148,10.);
#273=VECTOR('',#1151,10.);
#274=VECTOR('',#1154,10.);
#275=VECTOR('',#1157,10.);
#276=VECTOR('',#1158,10.);
#277=VECTOR('',#1163,10.);
#278=VECTOR('',#1166,1.5);
#279=VECTOR('',#1169,1.5);
#280=VECTOR('',#1172,1.5);
#281=VECTOR('',#1175,1.5);
#282=VECTOR('',#1178,1.5);
#283=VECTOR('',#1181,1.5);
#284=VECTOR('',#1184,1.5);
#285=VECTOR('',#1187,1.5);
#286=VECTOR('',#1190,1.5);
#287=VECTOR('',#1193,1.5);
#288=VECTOR('',#1196,1.5);
#289=VECTOR('',#1199,1.5);
#290=VECTOR('',#1202,1.25);
#291=CIRCLE('',#830,3.);
#292=CIRCLE('',#831,3.);
#293=CIRCLE('',#832,3.);
#294=CIRCLE('',#833,3.);
#295=CIRCLE('',#834,1.25);
#296=CIRCLE('',#835,1.5);
#297=CIRCLE('',#836,1.5);
#298=CIRCLE('',#837,1.5);
#299=CIRCLE('',#838,1.5);
#300=CIRCLE('',#839,1.5);
#301=CIRCLE('',#840,1.5);
#302=CIRCLE('',#841,1.5);
#303=CIRCLE('',#842,1.5);
#304=CIRCLE('',#843,1.5);
#305=CIRCLE('',#844,1.5);
#306=CIRCLE('',#845,1.5);
#307=CIRCLE('',#846,1.5);
#308=CIRCLE('',#847,1.25);
#309=CIRCLE('',#848,1.25);
#310=CIRCLE('',#849,1.25);
#311=CIRCLE('',#850,6.);
#312=CIRCLE('',#851,6.);
#313=CIRCLE('',#852,6.);
#314=CIRCLE('',#853,6.);
#315=CIRCLE('',#855,2.);
#316=CIRCLE('',#856,6.);
#317=CIRCLE('',#857,2.);
#318=CIRCLE('',#859,2.);
#319=CIRCLE('',#861,2.);
#320=CIRCLE('',#862,6.);
#321=CIRCLE('',#864,2.);
#322=CIRCLE('',#866,2.);
#323=CIRCLE('',#867,6.);
#324=CIRCLE('',#869,2.);
#325=CIRCLE('',#871,2.);
#326=CIRCLE('',#872,6.);
#327=CIRCLE('',#875,2.);
#328=CIRCLE('',#876,2.);
#329=CIRCLE('',#877,2.);
#330=CIRCLE('',#878,2.);
#331=CIRCLE('',#879,1.5);
#332=CIRCLE('',#880,1.5);
#333=CIRCLE('',#881,1.5);
#334=CIRCLE('',#882,1.5);
#335=CIRCLE('',#883,1.5);
#336=CIRCLE('',#884,1.5);
#337=CIRCLE('',#885,1.5);
#338=CIRCLE('',#886,1.5);
#339=CIRCLE('',#887,1.5);
#340=CIRCLE('',#888,1.5);
#341=CIRCLE('',#889,1.5);
#342=CIRCLE('',#890,1.5);
#343=CIRCLE('',#891,1.25);
#344=CIRCLE('',#892,1.25);
#345=CIRCLE('',#893,1.25);
#346=CIRCLE('',#894,1.25);
#347=CIRCLE('',#899,0.999999999999996);
#348=CIRCLE('',#900,1.);
#349=CIRCLE('',#902,1.);
#350=CIRCLE('',#903,3.);
#351=CIRCLE('',#905,1.);
#352=CIRCLE('',#907,1.);
#353=CIRCLE('',#908,3.);
#354=CIRCLE('',#910,1.);
#355=CIRCLE('',#912,1.);
#356=CIRCLE('',#913,3.);
#357=CIRCLE('',#915,1.);
#358=CIRCLE('',#917,3.);
#359=VERTEX_POINT('',#1207);
#360=VERTEX_POINT('',#1208);
#361=VERTEX_POINT('',#1210);
#362=VERTEX_POINT('',#1212);
#363=VERTEX_POINT('',#1214);
#364=VERTEX_POINT('',#1216);
#365=VERTEX_POINT('',#1218);
#366=VERTEX_POINT('',#1220);
#367=VERTEX_POINT('',#1223);
#368=VERTEX_POINT('',#1225);
#369=VERTEX_POINT('',#1227);
#370=VERTEX_POINT('',#1229);
#371=VERTEX_POINT('',#1231);
#372=VERTEX_POINT('',#1233);
#373=VERTEX_POINT('',#1235);
#374=VERTEX_POINT('',#1237);
#375=VERTEX_POINT('',#1239);
#376=VERTEX_POINT('',#1241);
#377=VERTEX_POINT('',#1243);
#378=VERTEX_POINT('',#1245);
#379=VERTEX_POINT('',#1247);
#380=VERTEX_POINT('',#1249);
#381=VERTEX_POINT('',#1251);
#382=VERTEX_POINT('',#1253);
#383=VERTEX_POINT('',#1255);
#384=VERTEX_POINT('',#1256);
#385=VERTEX_POINT('',#1258);
#386=VERTEX_POINT('',#1260);
#387=VERTEX_POINT('',#1262);
#388=VERTEX_POINT('',#1264);
#389=VERTEX_POINT('',#1266);
#390=VERTEX_POINT('',#1268);
#391=VERTEX_POINT('',#1272);
#392=VERTEX_POINT('',#1274);
#393=VERTEX_POINT('',#1278);
#394=VERTEX_POINT('',#1282);
#395=VERTEX_POINT('',#1286);
#396=VERTEX_POINT('',#1290);
#397=VERTEX_POINT('',#1294);
#398=VERTEX_POINT('',#1298);
#399=VERTEX_POINT('',#1304);
#400=VERTEX_POINT('',#1305);
#401=VERTEX_POINT('',#1307);
#402=VERTEX_POINT('',#1309);
#403=VERTEX_POINT('',#1311);
#404=VERTEX_POINT('',#1313);
#405=VERTEX_POINT('',#1315);
#406=VERTEX_POINT('',#1317);
#407=VERTEX_POINT('',#1320);
#408=VERTEX_POINT('',#1322);
#409=VERTEX_POINT('',#1324);
#410=VERTEX_POINT('',#1326);
#411=VERTEX_POINT('',#1328);
#412=VERTEX_POINT('',#1330);
#413=VERTEX_POINT('',#1332);
#414=VERTEX_POINT('',#1334);
#415=VERTEX_POINT('',#1336);
#416=VERTEX_POINT('',#1338);
#417=VERTEX_POINT('',#1340);
#418=VERTEX_POINT('',#1342);
#419=VERTEX_POINT('',#1344);
#420=VERTEX_POINT('',#1346);
#421=VERTEX_POINT('',#1348);
#422=VERTEX_POINT('',#1350);
#423=VERTEX_POINT('',#1359);
#424=VERTEX_POINT('',#1361);
#425=VERTEX_POINT('',#1365);
#426=VERTEX_POINT('',#1369);
#427=VERTEX_POINT('',#1373);
#428=VERTEX_POINT('',#1377);
#429=VERTEX_POINT('',#1381);
#430=VERTEX_POINT('',#1385);
#431=EDGE_CURVE('',#359,#360,#291,.T.);
#432=EDGE_CURVE('',#359,#361,#203,.T.);
#433=EDGE_CURVE('',#362,#361,#292,.T.);
#434=EDGE_CURVE('',#362,#363,#204,.T.);
#435=EDGE_CURVE('',#364,#363,#293,.T.);
#436=EDGE_CURVE('',#364,#365,#205,.T.);
#437=EDGE_CURVE('',#366,#365,#294,.T.);
#438=EDGE_CURVE('',#366,#360,#206,.T.);
#439=EDGE_CURVE('',#367,#367,#295,.T.);
#440=EDGE_CURVE('',#368,#368,#296,.T.);
#441=EDGE_CURVE('',#369,#369,#297,.T.);
#442=EDGE_CURVE('',#370,#370,#298,.T.);
#443=EDGE_CURVE('',#371,#371,#299,.T.);
#444=EDGE_CURVE('',#372,#372,#300,.T.);
#445=EDGE_CURVE('',#373,#373,#301,.T.);
#446=EDGE_CURVE('',#374,#374,#302,.T.);
#447=EDGE_CURVE('',#375,#375,#303,.T.);
#448=EDGE_CURVE('',#376,#376,#304,.T.);
#449=EDGE_CURVE('',#377,#377,#305,.T.);
#450=EDGE_CURVE('',#378,#378,#306,.T.);
#451=EDGE_CURVE('',#379,#379,#307,.T.);
#452=EDGE_CURVE('',#380,#380,#308,.T.);
#453=EDGE_CURVE('',#381,#381,#309,.T.);
#454=EDGE_CURVE('',#382,#382,#310,.T.);
#455=EDGE_CURVE('',#383,#384,#311,.T.);
#456=EDGE_CURVE('',#385,#383,#207,.T.);
#457=EDGE_CURVE('',#386,#385,#312,.T.);
#458=EDGE_CURVE('',#387,#386,#208,.T.);
#459=EDGE_CURVE('',#388,#387,#313,.T.);
#460=EDGE_CURVE('',#389,#388,#209,.T.);
#461=EDGE_CURVE('',#390,#389,#314,.T.);
#462=EDGE_CURVE('',#384,#390,#210,.T.);
#463=EDGE_CURVE('',#389,#391,#315,.T.);
#464=EDGE_CURVE('',#391,#392,#316,.T.);
#465=EDGE_CURVE('',#392,#390,#317,.T.);
#466=EDGE_CURVE('',#384,#393,#318,.T.);
#467=EDGE_CURVE('',#392,#393,#211,.T.);
#468=EDGE_CURVE('',#394,#383,#319,.T.);
#469=EDGE_CURVE('',#393,#394,#320,.T.);
#470=EDGE_CURVE('',#385,#395,#321,.T.);
#471=EDGE_CURVE('',#394,#395,#212,.T.);
#472=EDGE_CURVE('',#386,#396,#322,.T.);
#473=EDGE_CURVE('',#395,#396,#323,.T.);
#474=EDGE_CURVE('',#397,#387,#324,.T.);
#475=EDGE_CURVE('',#396,#397,#213,.T.);
#476=EDGE_CURVE('',#398,#388,#325,.T.);
#477=EDGE_CURVE('',#397,#398,#326,.T.);
#478=EDGE_CURVE('',#398,#391,#214,.T.);
#479=EDGE_CURVE('',#399,#400,#215,.T.);
#480=EDGE_CURVE('',#401,#399,#327,.T.);
#481=EDGE_CURVE('',#402,#401,#216,.T.);
#482=EDGE_CURVE('',#403,#402,#328,.T.);
#483=EDGE_CURVE('',#404,#403,#217,.T.);
#484=EDGE_CURVE('',#405,#404,#329,.T.);
#485=EDGE_CURVE('',#406,#405,#218,.T.);
#486=EDGE_CURVE('',#400,#406,#330,.T.);
#487=EDGE_CURVE('',#407,#407,#331,.T.);
#488=EDGE_CURVE('',#408,#408,#332,.T.);
#489=EDGE_CURVE('',#409,#409,#333,.T.);
#490=EDGE_CURVE('',#410,#410,#334,.T.);
#491=EDGE_CURVE('',#411,#411,#335,.T.);
#492=EDGE_CURVE('',#412,#412,#336,.T.);
#493=EDGE_CURVE('',#413,#413,#337,.T.);
#494=EDGE_CURVE('',#414,#414,#338,.T.);
#495=EDGE_CURVE('',#415,#415,#339,.T.);
#496=EDGE_CURVE('',#416,#416,#340,.T.);
#497=EDGE_CURVE('',#417,#417,#341,.T.);
#498=EDGE_CURVE('',#418,#418,#342,.T.);
#499=EDGE_CURVE('',#419,#419,#343,.T.);
#500=EDGE_CURVE('',#420,#420,#344,.T.);
#501=EDGE_CURVE('',#421,#421,#345,.T.);
#502=EDGE_CURVE('',#422,#422,#346,.T.);
#503=EDGE_CURVE('',#422,#382,#219,.T.);
#504=EDGE_CURVE('',#421,#381,#220,.T.);
#505=EDGE_CURVE('',#420,#380,#221,.T.);
#506=EDGE_CURVE('',#423,#399,#347,.T.);
#507=EDGE_CURVE('',#400,#424,#348,.T.);
#508=EDGE_CURVE('',#424,#423,#222,.T.);
#509=EDGE_CURVE('',#406,#425,#349,.T.);
#510=EDGE_CURVE('',#425,#424,#350,.T.);
#511=EDGE_CURVE('',#405,#426,#351,.T.);
#512=EDGE_CURVE('',#426,#425,#223,.T.);
#513=EDGE_CURVE('',#404,#427,#352,.T.);
#514=EDGE_CURVE('',#427,#426,#353,.T.);
#515=EDGE_CURVE('',#403,#428,#354,.T.);
#516=EDGE_CURVE('',#428,#427,#224,.T.);
#517=EDGE_CURVE('',#402,#429,#355,.T.);
#518=EDGE_CURVE('',#429,#428,#356,.T.);
#519=EDGE_CURVE('',#401,#430,#357,.T.);
#520=EDGE_CURVE('',#430,#429,#225,.T.);
#521=EDGE_CURVE('',#423,#430,#358,.T.);
#522=EDGE_CURVE('',#429,#362,#226,.T.);
#523=EDGE_CURVE('',#361,#428,#227,.T.);
#524=EDGE_CURVE('',#363,#430,#228,.T.);
#525=EDGE_CURVE('',#423,#364,#229,.T.);
#526=EDGE_CURVE('',#365,#424,#230,.T.);
#527=EDGE_CURVE('',#427,#359,#231,.T.);
#528=EDGE_CURVE('',#360,#426,#232,.T.);
#529=EDGE_CURVE('',#425,#366,#233,.T.);
#530=EDGE_CURVE('',#407,#379,#234,.T.);
#531=EDGE_CURVE('',#408,#378,#235,.T.);
#532=EDGE_CURVE('',#409,#377,#236,.T.);
#533=EDGE_CURVE('',#410,#376,#237,.T.);
#534=EDGE_CURVE('',#411,#375,#238,.T.);
#535=EDGE_CURVE('',#412,#374,#239,.T.);
#536=EDGE_CURVE('',#413,#373,#240,.T.);
#537=EDGE_CURVE('',#414,#372,#241,.T.);
#538=EDGE_CURVE('',#415,#371,#242,.T.);
#539=EDGE_CURVE('',#416,#370,#243,.T.);
#540=EDGE_CURVE('',#417,#369,#244,.T.);
#541=EDGE_CURVE('',#418,#368,#245,.T.);
#542=EDGE_CURVE('',#419,#367,#246,.T.);
#543=ORIENTED_EDGE('',*,*,#431,.F.);
#544=ORIENTED_EDGE('',*,*,#432,.T.);
#545=ORIENTED_EDGE('',*,*,#433,.F.);
#546=ORIENTED_EDGE('',*,*,#434,.T.);
#547=ORIENTED_EDGE('',*,*,#435,.F.);
#548=ORIENTED_EDGE('',*,*,#436,.T.);
#549=ORIENTED_EDGE('',*,*,#437,.F.);
#550=ORIENTED_EDGE('',*,*,#438,.T.);
#551=ORIENTED_EDGE('',*,*,#439,.T.);
#552=ORIENTED_EDGE('',*,*,#440,.T.);
#553=ORIENTED_EDGE('',*,*,#441,.T.);
#554=ORIENTED_EDGE('',*,*,#442,.T.);
#555=ORIENTED_EDGE('',*,*,#443,.T.);
#556=ORIENTED_EDGE('',*,*,#444,.T.);
#557=ORIENTED_EDGE('',*,*,#445,.T.);
#558=ORIENTED_EDGE('',*,*,#446,.T.);
#559=ORIENTED_EDGE('',*,*,#447,.T.);
#560=ORIENTED_EDGE('',*,*,#448,.T.);
#561=ORIENTED_EDGE('',*,*,#449,.T.);
#562=ORIENTED_EDGE('',*,*,#450,.T.);
#563=ORIENTED_EDGE('',*,*,#451,.T.);
#564=ORIENTED_EDGE('',*,*,#452,.T.);
#565=ORIENTED_EDGE('',*,*,#453,.T.);
#566=ORIENTED_EDGE('',*,*,#454,.T.);
#567=ORIENTED_EDGE('',*,*,#455,.F.);
#568=ORIENTED_EDGE('',*,*,#456,.F.);
#569=ORIENTED_EDGE('',*,*,#457,.F.);
#570=ORIENTED_EDGE('',*,*,#458,.F.);
#571=ORIENTED_EDGE('',*,*,#459,.F.);
#572=ORIENTED_EDGE('',*,*,#460,.F.);
#573=ORIENTED_EDGE('',*,*,#461,.F.);
#574=ORIENTED_EDGE('',*,*,#462,.F.);
#575=ORIENTED_EDGE('',*,*,#463,.T.);
#576=ORIENTED_EDGE('',*,*,#464,.T.);
#577=ORIENTED_EDGE('',*,*,#465,.T.);
#578=ORIENTED_EDGE('',*,*,#461,.T.);
#579=ORIENTED_EDGE('',*,*,#466,.F.);
#580=ORIENTED_EDGE('',*,*,#462,.T.);
#581=ORIENTED_EDGE('',*,*,#465,.F.);
#582=ORIENTED_EDGE('',*,*,#467,.T.);
#583=ORIENTED_EDGE('',*,*,#468,.T.);
#584=ORIENTED_EDGE('',*,*,#455,.T.);
#585=ORIENTED_EDGE('',*,*,#466,.T.);
#586=ORIENTED_EDGE('',*,*,#469,.T.);
#587=ORIENTED_EDGE('',*,*,#470,.F.);
#588=ORIENTED_EDGE('',*,*,#456,.T.);
#589=ORIENTED_EDGE('',*,*,#468,.F.);
#590=ORIENTED_EDGE('',*,*,#471,.T.);
#591=ORIENTED_EDGE('',*,*,#472,.F.);
#592=ORIENTED_EDGE('',*,*,#457,.T.);
#593=ORIENTED_EDGE('',*,*,#470,.T.);
#594=ORIENTED_EDGE('',*,*,#473,.T.);
#595=ORIENTED_EDGE('',*,*,#474,.T.);
#596=ORIENTED_EDGE('',*,*,#458,.T.);
#597=ORIENTED_EDGE('',*,*,#472,.T.);
#598=ORIENTED_EDGE('',*,*,#475,.T.);
#599=ORIENTED_EDGE('',*,*,#476,.T.);
#600=ORIENTED_EDGE('',*,*,#459,.T.);
#601=ORIENTED_EDGE('',*,*,#474,.F.);
#602=ORIENTED_EDGE('',*,*,#477,.T.);
#603=ORIENTED_EDGE('',*,*,#476,.F.);
#604=ORIENTED_EDGE('',*,*,#478,.T.);
#605=ORIENTED_EDGE('',*,*,#463,.F.);
#606=ORIENTED_EDGE('',*,*,#460,.T.);
#607=ORIENTED_EDGE('',*,*,#479,.F.);
#608=ORIENTED_EDGE('',*,*,#480,.F.);
#609=ORIENTED_EDGE('',*,*,#481,.F.);
#610=ORIENTED_EDGE('',*,*,#482,.F.);
#611=ORIENTED_EDGE('',*,*,#483,.F.);
#612=ORIENTED_EDGE('',*,*,#484,.F.);
#613=ORIENTED_EDGE('',*,*,#485,.F.);
#614=ORIENTED_EDGE('',*,*,#486,.F.);
#615=ORIENTED_EDGE('',*,*,#487,.T.);
#616=ORIENTED_EDGE('',*,*,#488,.T.);
#617=ORIENTED_EDGE('',*,*,#489,.T.);
#618=ORIENTED_EDGE('',*,*,#490,.T.);
#619=ORIENTED_EDGE('',*,*,#491,.T.);
#620=ORIENTED_EDGE('',*,*,#492,.T.);
#621=ORIENTED_EDGE('',*,*,#493,.T.);
#622=ORIENTED_EDGE('',*,*,#494,.T.);
#623=ORIENTED_EDGE('',*,*,#495,.T.);
#624=ORIENTED_EDGE('',*,*,#496,.T.);
#625=ORIENTED_EDGE('',*,*,#497,.T.);
#626=ORIENTED_EDGE('',*,*,#498,.T.);
#627=ORIENTED_EDGE('',*,*,#499,.T.);
#628=ORIENTED_EDGE('',*,*,#500,.T.);
#629=ORIENTED_EDGE('',*,*,#501,.T.);
#630=ORIENTED_EDGE('',*,*,#502,.T.);
#631=ORIENTED_EDGE('',*,*,#464,.F.);
#632=ORIENTED_EDGE('',*,*,#478,.F.);
#633=ORIENTED_EDGE('',*,*,#477,.F.);
#634=ORIENTED_EDGE('',*,*,#475,.F.);
#635=ORIENTED_EDGE('',*,*,#473,.F.);
#636=ORIENTED_EDGE('',*,*,#471,.F.);
#637=ORIENTED_EDGE('',*,*,#469,.F.);
#638=ORIENTED_EDGE('',*,*,#467,.F.);
#639=ORIENTED_EDGE('',*,*,#502,.F.);
#640=ORIENTED_EDGE('',*,*,#503,.T.);
#641=ORIENTED_EDGE('',*,*,#454,.F.);
#642=ORIENTED_EDGE('',*,*,#503,.F.);
#643=ORIENTED_EDGE('',*,*,#501,.F.);
#644=ORIENTED_EDGE('',*,*,#504,.T.);
#645=ORIENTED_EDGE('',*,*,#453,.F.);
#646=ORIENTED_EDGE('',*,*,#504,.F.);
#647=ORIENTED_EDGE('',*,*,#500,.F.);
#648=ORIENTED_EDGE('',*,*,#505,.T.);
#649=ORIENTED_EDGE('',*,*,#452,.F.);
#650=ORIENTED_EDGE('',*,*,#505,.F.);
#651=ORIENTED_EDGE('',*,*,#506,.T.);
#652=ORIENTED_EDGE('',*,*,#479,.T.);
#653=ORIENTED_EDGE('',*,*,#507,.T.);
#654=ORIENTED_EDGE('',*,*,#508,.T.);
#655=ORIENTED_EDGE('',*,*,#509,.T.);
#656=ORIENTED_EDGE('',*,*,#510,.T.);
#657=ORIENTED_EDGE('',*,*,#507,.F.);
#658=ORIENTED_EDGE('',*,*,#486,.T.);
#659=ORIENTED_EDGE('',*,*,#511,.T.);
#660=ORIENTED_EDGE('',*,*,#512,.T.);
#661=ORIENTED_EDGE('',*,*,#509,.F.);
#662=ORIENTED_EDGE('',*,*,#485,.T.);
#663=ORIENTED_EDGE('',*,*,#513,.T.);
#664=ORIENTED_EDGE('',*,*,#514,.T.);
#665=ORIENTED_EDGE('',*,*,#511,.F.);
#666=ORIENTED_EDGE('',*,*,#484,.T.);
#667=ORIENTED_EDGE('',*,*,#515,.T.);
#668=ORIENTED_EDGE('',*,*,#516,.T.);
#669=ORIENTED_EDGE('',*,*,#513,.F.);
#670=ORIENTED_EDGE('',*,*,#483,.T.);
#671=ORIENTED_EDGE('',*,*,#517,.T.);
#672=ORIENTED_EDGE('',*,*,#518,.T.);
#673=ORIENTED_EDGE('',*,*,#515,.F.);
#674=ORIENTED_EDGE('',*,*,#482,.T.);
#675=ORIENTED_EDGE('',*,*,#519,.T.);
#676=ORIENTED_EDGE('',*,*,#520,.T.);
#677=ORIENTED_EDGE('',*,*,#517,.F.);
#678=ORIENTED_EDGE('',*,*,#481,.T.);
#679=ORIENTED_EDGE('',*,*,#506,.F.);
#680=ORIENTED_EDGE('',*,*,#521,.T.);
#681=ORIENTED_EDGE('',*,*,#519,.F.);
#682=ORIENTED_EDGE('',*,*,#480,.T.);
#683=ORIENTED_EDGE('',*,*,#518,.F.);
#684=ORIENTED_EDGE('',*,*,#522,.T.);
#685=ORIENTED_EDGE('',*,*,#433,.T.);
#686=ORIENTED_EDGE('',*,*,#523,.T.);
#687=ORIENTED_EDGE('',*,*,#520,.F.);
#688=ORIENTED_EDGE('',*,*,#524,.F.);
#689=ORIENTED_EDGE('',*,*,#434,.F.);
#690=ORIENTED_EDGE('',*,*,#522,.F.);
#691=ORIENTED_EDGE('',*,*,#521,.F.);
#692=ORIENTED_EDGE('',*,*,#525,.T.);
#693=ORIENTED_EDGE('',*,*,#435,.T.);
#694=ORIENTED_EDGE('',*,*,#524,.T.);
#695=ORIENTED_EDGE('',*,*,#508,.F.);
#696=ORIENTED_EDGE('',*,*,#526,.F.);
#697=ORIENTED_EDGE('',*,*,#436,.F.);
#698=ORIENTED_EDGE('',*,*,#525,.F.);
#699=ORIENTED_EDGE('',*,*,#514,.F.);
#700=ORIENTED_EDGE('',*,*,#527,.T.);
#701=ORIENTED_EDGE('',*,*,#431,.T.);
#702=ORIENTED_EDGE('',*,*,#528,.T.);
#703=ORIENTED_EDGE('',*,*,#516,.F.);
#704=ORIENTED_EDGE('',*,*,#523,.F.);
#705=ORIENTED_EDGE('',*,*,#432,.F.);
#706=ORIENTED_EDGE('',*,*,#527,.F.);
#707=ORIENTED_EDGE('',*,*,#510,.F.);
#708=ORIENTED_EDGE('',*,*,#529,.T.);
#709=ORIENTED_EDGE('',*,*,#437,.T.);
#710=ORIENTED_EDGE('',*,*,#526,.T.);
#711=ORIENTED_EDGE('',*,*,#487,.F.);
#712=ORIENTED_EDGE('',*,*,#530,.T.);
#713=ORIENTED_EDGE('',*,*,#451,.F.);
#714=ORIENTED_EDGE('',*,*,#530,.F.);
#715=ORIENTED_EDGE('',*,*,#488,.F.);
#716=ORIENTED_EDGE('',*,*,#531,.T.);
#717=ORIENTED_EDGE('',*,*,#450,.F.);
#718=ORIENTED_EDGE('',*,*,#531,.F.);
#719=ORIENTED_EDGE('',*,*,#489,.F.);
#720=ORIENTED_EDGE('',*,*,#532,.T.);
#721=ORIENTED_EDGE('',*,*,#449,.F.);
#722=ORIENTED_EDGE('',*,*,#532,.F.);
#723=ORIENTED_EDGE('',*,*,#490,.F.);
#724=ORIENTED_EDGE('',*,*,#533,.T.);
#725=ORIENTED_EDGE('',*,*,#448,.F.);
#726=ORIENTED_EDGE('',*,*,#533,.F.);
#727=ORIENTED_EDGE('',*,*,#491,.F.);
#728=ORIENTED_EDGE('',*,*,#534,.T.);
#729=ORIENTED_EDGE('',*,*,#447,.F.);
#730=ORIENTED_EDGE('',*,*,#534,.F.);
#731=ORIENTED_EDGE('',*,*,#492,.F.);
#732=ORIENTED_EDGE('',*,*,#535,.T.);
#733=ORIENTED_EDGE('',*,*,#446,.F.);
#734=ORIENTED_EDGE('',*,*,#535,.F.);
#735=ORIENTED_EDGE('',*,*,#493,.F.);
#736=ORIENTED_EDGE('',*,*,#536,.T.);
#737=ORIENTED_EDGE('',*,*,#445,.F.);
#738=ORIENTED_EDGE('',*,*,#536,.F.);
#739=ORIENTED_EDGE('',*,*,#494,.F.);
#740=ORIENTED_EDGE('',*,*,#537,.T.);
#741=ORIENTED_EDGE('',*,*,#444,.F.);
#742=ORIENTED_EDGE('',*,*,#537,.F.);
#743=ORIENTED_EDGE('',*,*,#495,.F.);
#744=ORIENTED_EDGE('',*,*,#538,.T.);
#745=ORIENTED_EDGE('',*,*,#443,.F.);
#746=ORIENTED_EDGE('',*,*,#538,.F.);
#747=ORIENTED_EDGE('',*,*,#496,.F.);
#748=ORIENTED_EDGE('',*,*,#539,.T.);
#749=ORIENTED_EDGE('',*,*,#442,.F.);
#750=ORIENTED_EDGE('',*,*,#539,.F.);
#751=ORIENTED_EDGE('',*,*,#497,.F.);
#752=ORIENTED_EDGE('',*,*,#540,.T.);
#753=ORIENTED_EDGE('',*,*,#441,.F.);
#754=ORIENTED_EDGE('',*,*,#540,.F.);
#755=ORIENTED_EDGE('',*,*,#498,.F.);
#756=ORIENTED_EDGE('',*,*,#541,.T.);
#757=ORIENTED_EDGE('',*,*,#440,.F.);
#758=ORIENTED_EDGE('',*,*,#541,.F.);
#759=ORIENTED_EDGE('',*,*,#499,.F.);
#760=ORIENTED_EDGE('',*,*,#542,.T.);
#761=ORIENTED_EDGE('',*,*,#439,.F.);
#762=ORIENTED_EDGE('',*,*,#542,.F.);
#763=ORIENTED_EDGE('',*,*,#512,.F.);
#764=ORIENTED_EDGE('',*,*,#528,.F.);
#765=ORIENTED_EDGE('',*,*,#438,.F.);
#766=ORIENTED_EDGE('',*,*,#529,.F.);
#767=PLANE('',#829);
#768=PLANE('',#874);
#769=PLANE('',#919);
#770=PLANE('',#921);
#771=PLANE('',#923);
#772=PLANE('',#938);
#773=ADVANCED_FACE('',(#85,#51,#52,#53,#54,#55,#56,#57,#58,#59,#60,#61,
#62,#63,#64,#65,#66,#67),#767,.T.);
#774=ADVANCED_FACE('',(#86),#43,.T.);
#775=ADVANCED_FACE('',(#87),#15,.T.);
#776=ADVANCED_FACE('',(#88),#44,.T.);
#777=ADVANCED_FACE('',(#89),#16,.T.);
#778=ADVANCED_FACE('',(#90),#45,.T.);
#779=ADVANCED_FACE('',(#91),#17,.T.);
#780=ADVANCED_FACE('',(#92),#46,.T.);
#781=ADVANCED_FACE('',(#93),#18,.T.);
#782=ADVANCED_FACE('',(#94,#68,#69,#70,#71,#72,#73,#74,#75,#76,#77,#78,
#79,#80,#81,#82,#83,#84),#768,.T.);
#783=ADVANCED_FACE('',(#95),#19,.F.);
#784=ADVANCED_FACE('',(#96),#20,.F.);
#785=ADVANCED_FACE('',(#97),#21,.F.);
#786=ADVANCED_FACE('',(#98),#22,.T.);
#787=ADVANCED_FACE('',(#99),#47,.T.);
#788=ADVANCED_FACE('',(#100),#23,.T.);
#789=ADVANCED_FACE('',(#101),#48,.T.);
#790=ADVANCED_FACE('',(#102),#24,.T.);
#791=ADVANCED_FACE('',(#103),#49,.T.);
#792=ADVANCED_FACE('',(#104),#25,.T.);
#793=ADVANCED_FACE('',(#105),#50,.T.);
#794=ADVANCED_FACE('',(#106),#26,.T.);
#795=ADVANCED_FACE('',(#107),#769,.T.);
#796=ADVANCED_FACE('',(#108),#27,.T.);
#797=ADVANCED_FACE('',(#109),#770,.T.);
#798=ADVANCED_FACE('',(#110),#28,.T.);
#799=ADVANCED_FACE('',(#111),#771,.T.);
#800=ADVANCED_FACE('',(#112),#29,.T.);
#801=ADVANCED_FACE('',(#113),#30,.F.);
#802=ADVANCED_FACE('',(#114),#31,.F.);
#803=ADVANCED_FACE('',(#115),#32,.F.);
#804=ADVANCED_FACE('',(#116),#33,.F.);
#805=ADVANCED_FACE('',(#117),#34,.F.);
#806=ADVANCED_FACE('',(#118),#35,.F.);
#807=ADVANCED_FACE('',(#119),#36,.F.);
#808=ADVANCED_FACE('',(#120),#37,.F.);
#809=ADVANCED_FACE('',(#121),#38,.F.);
#810=ADVANCED_FACE('',(#122),#39,.F.);
#811=ADVANCED_FACE('',(#123),#40,.F.);
#812=ADVANCED_FACE('',(#124),#41,.F.);
#813=ADVANCED_FACE('',(#125),#42,.F.);
#814=ADVANCED_FACE('',(#126),#772,.T.);
#815=CLOSED_SHELL('',(#773,#774,#775,#776,#777,#778,#779,#780,#781,#782,
#783,#784,#785,#786,#787,#788,#789,#790,#791,#792,#793,#794,#795,#796,#797,
#798,#799,#800,#801,#802,#803,#804,#805,#806,#807,#808,#809,#810,#811,#812,
#813,#814));
#816=DERIVED_UNIT_ELEMENT(#818,1.);
#817=DERIVED_UNIT_ELEMENT(#1437,-3.);
#818=(
MASS_UNIT()
NAMED_UNIT(*)
SI_UNIT(.KILO.,.GRAM.)
);
#819=DERIVED_UNIT((#816,#817));
#820=MEASURE_REPRESENTATION_ITEM('density measure',
POSITIVE_RATIO_MEASURE(7850.),#819);
#821=PROPERTY_DEFINITION_REPRESENTATION(#826,#823);
#822=PROPERTY_DEFINITION_REPRESENTATION(#827,#824);
#823=REPRESENTATION('material name',(#825),#1434);
#824=REPRESENTATION('density',(#820),#1434);
#825=DESCRIPTIVE_REPRESENTATION_ITEM('Steel','Steel');
#826=PROPERTY_DEFINITION('material property','material name',#1444);
#827=PROPERTY_DEFINITION('material property','density of part',#1444);
#828=AXIS2_PLACEMENT_3D('',#1205,#939,#940);
#829=AXIS2_PLACEMENT_3D('',#1206,#941,#942);
#830=AXIS2_PLACEMENT_3D('',#1209,#943,#944);
#831=AXIS2_PLACEMENT_3D('',#1213,#946,#947);
#832=AXIS2_PLACEMENT_3D('',#1217,#949,#950);
#833=AXIS2_PLACEMENT_3D('',#1221,#952,#953);
#834=AXIS2_PLACEMENT_3D('',#1224,#955,#956);
#835=AXIS2_PLACEMENT_3D('',#1226,#957,#958);
#836=AXIS2_PLACEMENT_3D('',#1228,#959,#960);
#837=AXIS2_PLACEMENT_3D('',#1230,#961,#962);
#838=AXIS2_PLACEMENT_3D('',#1232,#963,#964);
#839=AXIS2_PLACEMENT_3D('',#1234,#965,#966);
#840=AXIS2_PLACEMENT_3D('',#1236,#967,#968);
#841=AXIS2_PLACEMENT_3D('',#1238,#969,#970);
#842=AXIS2_PLACEMENT_3D('',#1240,#971,#972);
#843=AXIS2_PLACEMENT_3D('',#1242,#973,#974);
#844=AXIS2_PLACEMENT_3D('',#1244,#975,#976);
#845=AXIS2_PLACEMENT_3D('',#1246,#977,#978);
#846=AXIS2_PLACEMENT_3D('',#1248,#979,#980);
#847=AXIS2_PLACEMENT_3D('',#1250,#981,#982);
#848=AXIS2_PLACEMENT_3D('',#1252,#983,#984);
#849=AXIS2_PLACEMENT_3D('',#1254,#985,#986);
#850=AXIS2_PLACEMENT_3D('',#1257,#987,#988);
#851=AXIS2_PLACEMENT_3D('',#1261,#990,#991);
#852=AXIS2_PLACEMENT_3D('',#1265,#993,#994);
#853=AXIS2_PLACEMENT_3D('',#1269,#996,#997);
#854=AXIS2_PLACEMENT_3D('',#1271,#999,#1000);
#855=AXIS2_PLACEMENT_3D('',#1273,#1001,#1002);
#856=AXIS2_PLACEMENT_3D('',#1275,#1003,#1004);
#857=AXIS2_PLACEMENT_3D('',#1276,#1005,#1006);
#858=AXIS2_PLACEMENT_3D('',#1277,#1007,#1008);
#859=AXIS2_PLACEMENT_3D('',#1279,#1009,#1010);
#860=AXIS2_PLACEMENT_3D('',#1281,#1012,#1013);
#861=AXIS2_PLACEMENT_3D('',#1283,#1014,#1015);
#862=AXIS2_PLACEMENT_3D('',#1284,#1016,#1017);
#863=AXIS2_PLACEMENT_3D('',#1285,#1018,#1019);
#864=AXIS2_PLACEMENT_3D('',#1287,#1020,#1021);
#865=AXIS2_PLACEMENT_3D('',#1289,#1023,#1024);
#866=AXIS2_PLACEMENT_3D('',#1291,#1025,#1026);
#867=AXIS2_PLACEMENT_3D('',#1292,#1027,#1028);
#868=AXIS2_PLACEMENT_3D('',#1293,#1029,#1030);
#869=AXIS2_PLACEMENT_3D('',#1295,#1031,#1032);
#870=AXIS2_PLACEMENT_3D('',#1297,#1034,#1035);
#871=AXIS2_PLACEMENT_3D('',#1299,#1036,#1037);
#872=AXIS2_PLACEMENT_3D('',#1300,#1038,#1039);
#873=AXIS2_PLACEMENT_3D('',#1301,#1040,#1041);
#874=AXIS2_PLACEMENT_3D('',#1303,#1043,#1044);
#875=AXIS2_PLACEMENT_3D('',#1308,#1046,#1047);
#876=AXIS2_PLACEMENT_3D('',#1312,#1049,#1050);
#877=AXIS2_PLACEMENT_3D('',#1316,#1052,#1053);
#878=AXIS2_PLACEMENT_3D('',#1319,#1055,#1056);
#879=AXIS2_PLACEMENT_3D('',#1321,#1057,#1058);
#880=AXIS2_PLACEMENT_3D('',#1323,#1059,#1060);
#881=AXIS2_PLACEMENT_3D('',#1325,#1061,#1062);
#882=AXIS2_PLACEMENT_3D('',#1327,#1063,#1064);
#883=AXIS2_PLACEMENT_3D('',#1329,#1065,#1066);
#884=AXIS2_PLACEMENT_3D('',#1331,#1067,#1068);
#885=AXIS2_PLACEMENT_3D('',#1333,#1069,#1070);
#886=AXIS2_PLACEMENT_3D('',#1335,#1071,#1072);
#887=AXIS2_PLACEMENT_3D('',#1337,#1073,#1074);
#888=AXIS2_PLACEMENT_3D('',#1339,#1075,#1076);
#889=AXIS2_PLACEMENT_3D('',#1341,#1077,#1078);
#890=AXIS2_PLACEMENT_3D('',#1343,#1079,#1080);
#891=AXIS2_PLACEMENT_3D('',#1345,#1081,#1082);
#892=AXIS2_PLACEMENT_3D('',#1347,#1083,#1084);
#893=AXIS2_PLACEMENT_3D('',#1349,#1085,#1086);
#894=AXIS2_PLACEMENT_3D('',#1351,#1087,#1088);
#895=AXIS2_PLACEMENT_3D('',#1352,#1089,#1090);
#896=AXIS2_PLACEMENT_3D('',#1354,#1092,#1093);
#897=AXIS2_PLACEMENT_3D('',#1356,#1095,#1096);
#898=AXIS2_PLACEMENT_3D('',#1358,#1098,#1099);
#899=AXIS2_PLACEMENT_3D('',#1360,#1100,#1101);
#900=AXIS2_PLACEMENT_3D('',#1362,#1102,#1103);
#901=AXIS2_PLACEMENT_3D('',#1364,#1105,#1106);
#902=AXIS2_PLACEMENT_3D('',#1366,#1107,#1108);
#903=AXIS2_PLACEMENT_3D('',#1367,#1109,#1110);
#904=AXIS2_PLACEMENT_3D('',#1368,#1111,#1112);
#905=AXIS2_PLACEMENT_3D('',#1370,#1113,#1114);
#906=AXIS2_PLACEMENT_3D('',#1372,#1116,#1117);
#907=AXIS2_PLACEMENT_3D('',#1374,#1118,#1119);
#908=AXIS2_PLACEMENT_3D('',#1375,#1120,#1121);
#909=AXIS2_PLACEMENT_3D('',#1376,#1122,#1123);
#910=AXIS2_PLACEMENT_3D('',#1378,#1124,#1125);
#911=AXIS2_PLACEMENT_3D('',#1380,#1127,#1128);
#912=AXIS2_PLACEMENT_3D('',#1382,#1129,#1130);
#913=AXIS2_PLACEMENT_3D('',#1383,#1131,#1132);
#914=AXIS2_PLACEMENT_3D('',#1384,#1133,#1134);
#915=AXIS2_PLACEMENT_3D('',#1386,#1135,#1136);
#916=AXIS2_PLACEMENT_3D('',#1388,#1138,#1139);
#917=AXIS2_PLACEMENT_3D('',#1389,#1140,#1141);
#918=AXIS2_PLACEMENT_3D('',#1390,#1142,#1143);
#919=AXIS2_PLACEMENT_3D('',#1393,#1146,#1147);
#920=AXIS2_PLACEMENT_3D('',#1395,#1149,#1150);
#921=AXIS2_PLACEMENT_3D('',#1397,#1152,#1153);
#922=AXIS2_PLACEMENT_3D('',#1399,#1155,#1156);
#923=AXIS2_PLACEMENT_3D('',#1402,#1159,#1160);
#924=AXIS2_PLACEMENT_3D('',#1403,#1161,#1162);
#925=AXIS2_PLACEMENT_3D('',#1405,#1164,#1165);
#926=AXIS2_PLACEMENT_3D('',#1407,#1167,#1168);
#927=AXIS2_PLACEMENT_3D('',#1409,#1170,#1171);
#928=AXIS2_PLACEMENT_3D('',#1411,#1173,#1174);
#929=AXIS2_PLACEMENT_3D('',#1413,#1176,#1177);
#930=AXIS2_PLACEMENT_3D('',#1415,#1179,#1180);
#931=AXIS2_PLACEMENT_3D('',#1417,#1182,#1183);
#932=AXIS2_PLACEMENT_3D('',#1419,#1185,#1186);
#933=AXIS2_PLACEMENT_3D('',#1421,#1188,#1189);
#934=AXIS2_PLACEMENT_3D('',#1423,#1191,#1192);
#935=AXIS2_PLACEMENT_3D('',#1425,#1194,#1195);
#936=AXIS2_PLACEMENT_3D('',#1427,#1197,#1198);
#937=AXIS2_PLACEMENT_3D('',#1429,#1200,#1201);
#938=AXIS2_PLACEMENT_3D('',#1431,#1203,#1204);
#939=DIRECTION('axis',(0.,0.,1.));
#940=DIRECTION('refdir',(1.,0.,0.));
#941=DIRECTION('center_axis',(0.,-1.,0.));
#942=DIRECTION('ref_axis',(0.,0.,-1.));
#943=DIRECTION('center_axis',(0.,1.,0.));
#944=DIRECTION('ref_axis',(-0.707106781186548,0.,-0.707106781186548));
#945=DIRECTION('',(1.,0.,0.));
#946=DIRECTION('center_axis',(0.,1.,0.));
#947=DIRECTION('ref_axis',(0.707106781186548,0.,-0.707106781186548));
#948=DIRECTION('',(2.80477395694776E-16,0.,1.));
#949=DIRECTION('center_axis',(0.,1.,0.));
#950=DIRECTION('ref_axis',(0.707106781186543,0.,0.707106781186552));
#951=DIRECTION('',(-1.,0.,0.));
#952=DIRECTION('center_axis',(0.,1.,0.));
#953=DIRECTION('ref_axis',(-0.707106781186548,0.,0.707106781186548));
#954=DIRECTION('',(0.,0.,-1.));
#955=DIRECTION('center_axis',(0.,1.,0.));
#956=DIRECTION('ref_axis',(0.,0.,1.));
#957=DIRECTION('center_axis',(0.,1.,0.));
#958=DIRECTION('ref_axis',(0.,0.,1.));
#959=DIRECTION('center_axis',(0.,1.,0.));
#960=DIRECTION('ref_axis',(0.,0.,1.));
#961=DIRECTION('center_axis',(0.,1.,0.));
#962=DIRECTION('ref_axis',(0.,0.,1.));
#963=DIRECTION('center_axis',(0.,1.,0.));
#964=DIRECTION('ref_axis',(0.,0.,1.));
#965=DIRECTION('center_axis',(0.,1.,0.));
#966=DIRECTION('ref_axis',(0.,0.,1.));
#967=DIRECTION('center_axis',(0.,1.,0.));
#968=DIRECTION('ref_axis',(0.,0.,1.));
#969=DIRECTION('center_axis',(0.,1.,0.));
#970=DIRECTION('ref_axis',(0.,0.,1.));
#971=DIRECTION('center_axis',(0.,1.,0.));
#972=DIRECTION('ref_axis',(0.,0.,1.));
#973=DIRECTION('center_axis',(0.,1.,0.));
#974=DIRECTION('ref_axis',(0.,0.,1.));
#975=DIRECTION('center_axis',(0.,1.,0.));
#976=DIRECTION('ref_axis',(0.,0.,1.));
#977=DIRECTION('center_axis',(0.,1.,0.));
#978=DIRECTION('ref_axis',(0.,0.,1.));
#979=DIRECTION('center_axis',(0.,1.,0.));
#980=DIRECTION('ref_axis',(0.,0.,1.));
#981=DIRECTION('center_axis',(0.,1.,0.));
#982=DIRECTION('ref_axis',(0.,0.,1.));
#983=DIRECTION('center_axis',(0.,1.,0.));
#984=DIRECTION('ref_axis',(0.,0.,1.));
#985=DIRECTION('center_axis',(0.,1.,0.));
#986=DIRECTION('ref_axis',(0.,0.,1.));
#987=DIRECTION('center_axis',(0.,-1.,0.));
#988=DIRECTION('ref_axis',(-0.707106781186547,0.,0.707106781186548));
#989=DIRECTION('',(-1.,0.,0.));
#990=DIRECTION('center_axis',(0.,-1.,0.));
#991=DIRECTION('ref_axis',(0.707106781186547,0.,0.707106781186548));
#992=DIRECTION('',(7.40148683083437E-17,0.,1.));
#993=DIRECTION('center_axis',(0.,-1.,0.));
#994=DIRECTION('ref_axis',(0.707106781186547,0.,-0.707106781186548));
#995=DIRECTION('',(1.,0.,-5.9211894646675E-16));
#996=DIRECTION('center_axis',(0.,-1.,0.));
#997=DIRECTION('ref_axis',(-0.707106781186547,0.,-0.707106781186548));
#998=DIRECTION('',(-2.22044604925031E-16,0.,-1.));
#999=DIRECTION('center_axis',(0.,1.,0.));
#1000=DIRECTION('ref_axis',(0.,0.,1.));
#1001=DIRECTION('center_axis',(-1.,0.,1.11022302462516E-15));
#1002=DIRECTION('ref_axis',(1.11022302462516E-15,0.,1.));
#1003=DIRECTION('center_axis',(0.,1.,0.));
#1004=DIRECTION('ref_axis',(-0.707106781186547,0.,-0.707106781186548));
#1005=DIRECTION('center_axis',(0.,0.,-1.));
#1006=DIRECTION('ref_axis',(0.,1.,0.));
#1007=DIRECTION('center_axis',(-2.22044604925031E-16,0.,-1.));
#1008=DIRECTION('ref_axis',(0.707106781186547,0.707106781186548,0.));
#1009=DIRECTION('center_axis',(0.,0.,1.));
#1010=DIRECTION('ref_axis',(0.,-1.,0.));
#1011=DIRECTION('',(2.22044604925031E-16,0.,1.));
#1012=DIRECTION('center_axis',(0.,1.,0.));
#1013=DIRECTION('ref_axis',(0.,0.,1.));
#1014=DIRECTION('center_axis',(-1.,0.,0.));
#1015=DIRECTION('ref_axis',(0.,0.,-1.));
#1016=DIRECTION('center_axis',(0.,1.,0.));
#1017=DIRECTION('ref_axis',(-0.707106781186547,0.,0.707106781186548));
#1018=DIRECTION('center_axis',(-1.,0.,0.));
#1019=DIRECTION('ref_axis',(0.,0.707106781186546,-0.707106781186549));
#1020=DIRECTION('center_axis',(1.,0.,0.));
#1021=DIRECTION('ref_axis',(0.,-1.,0.));
#1022=DIRECTION('',(1.,0.,0.));
#1023=DIRECTION('center_axis',(0.,1.,0.));
#1024=DIRECTION('ref_axis',(0.,0.,1.));
#1025=DIRECTION('center_axis',(0.,0.,-1.));
#1026=DIRECTION('ref_axis',(0.,-1.,0.));
#1027=DIRECTION('center_axis',(0.,1.,0.));
#1028=DIRECTION('ref_axis',(0.707106781186547,0.,0.707106781186548));
#1029=DIRECTION('center_axis',(7.40148683083437E-17,0.,1.));
#1030=DIRECTION('ref_axis',(-0.707106781186548,0.707106781186547,0.));
#1031=DIRECTION('center_axis',(0.,0.,1.));
#1032=DIRECTION('ref_axis',(0.,1.,0.));
#1033=DIRECTION('',(-7.40148683083437E-17,0.,-1.));
#1034=DIRECTION('center_axis',(0.,1.,0.));
#1035=DIRECTION('ref_axis',(0.,0.,1.));
#1036=DIRECTION('center_axis',(1.,0.,-5.5511151231258E-16));
#1037=DIRECTION('ref_axis',(0.,1.,0.));
#1038=DIRECTION('center_axis',(0.,1.,0.));
#1039=DIRECTION('ref_axis',(0.707106781186547,0.,-0.707106781186548));
#1040=DIRECTION('center_axis',(1.,0.,-5.9211894646675E-16));
#1041=DIRECTION('ref_axis',(3.92523114670943E-16,0.707106781186546,0.707106781186549));
#1042=DIRECTION('',(-1.,0.,5.9211894646675E-16));
#1043=DIRECTION('center_axis',(0.,1.,0.));
#1044=DIRECTION('ref_axis',(1.,0.,0.));
#1045=DIRECTION('',(-1.,0.,0.));
#1046=DIRECTION('center_axis',(0.,-1.,0.));
#1047=DIRECTION('ref_axis',(0.707106781186548,0.,0.707106781186548));
#1048=DIRECTION('',(2.80477395694776E-16,0.,1.));
#1049=DIRECTION('center_axis',(0.,-1.,0.));
#1050=DIRECTION('ref_axis',(0.707106781186549,0.,-0.707106781186546));
#1051=DIRECTION('',(1.,0.,0.));
#1052=DIRECTION('center_axis',(0.,-1.,0.));
#1053=DIRECTION('ref_axis',(-0.707106781186551,0.,-0.707106781186545));
#1054=DIRECTION('',(0.,0.,-1.));
#1055=DIRECTION('center_axis',(0.,-1.,0.));
#1056=DIRECTION('ref_axis',(-0.707106781186549,0.,0.707106781186546));
#1057=DIRECTION('center_axis',(0.,-1.,0.));
#1058=DIRECTION('ref_axis',(0.,0.,1.));
#1059=DIRECTION('center_axis',(0.,-1.,0.));
#1060=DIRECTION('ref_axis',(0.,0.,1.));
#1061=DIRECTION('center_axis',(0.,-1.,0.));
#1062=DIRECTION('ref_axis',(0.,0.,1.));
#1063=DIRECTION('center_axis',(0.,-1.,0.));
#1064=DIRECTION('ref_axis',(0.,0.,1.));
#1065=DIRECTION('center_axis',(0.,-1.,0.));
#1066=DIRECTION('ref_axis',(0.,0.,1.));
#1067=DIRECTION('center_axis',(0.,-1.,0.));
#1068=DIRECTION('ref_axis',(0.,0.,1.));
#1069=DIRECTION('center_axis',(0.,-1.,0.));
#1070=DIRECTION('ref_axis',(0.,0.,1.));
#1071=DIRECTION('center_axis',(0.,-1.,0.));
#1072=DIRECTION('ref_axis',(0.,0.,1.));
#1073=DIRECTION('center_axis',(0.,-1.,0.));
#1074=DIRECTION('ref_axis',(0.,0.,1.));
#1075=DIRECTION('center_axis',(0.,-1.,0.));
#1076=DIRECTION('ref_axis',(0.,0.,1.));
#1077=DIRECTION('center_axis',(0.,-1.,0.));
#1078=DIRECTION('ref_axis',(0.,0.,1.));
#1079=DIRECTION('center_axis',(0.,-1.,0.));
#1080=DIRECTION('ref_axis',(0.,0.,1.));
#1081=DIRECTION('center_axis',(0.,-1.,0.));
#1082=DIRECTION('ref_axis',(0.,0.,1.));
#1083=DIRECTION('center_axis',(0.,-1.,0.));
#1084=DIRECTION('ref_axis',(0.,0.,1.));
#1085=DIRECTION('center_axis',(0.,-1.,0.));
#1086=DIRECTION('ref_axis',(0.,0.,1.));
#1087=DIRECTION('center_axis',(0.,-1.,0.));
#1088=DIRECTION('ref_axis',(0.,0.,1.));
#1089=DIRECTION('center_axis',(0.,-1.,0.));
#1090=DIRECTION('ref_axis',(0.,0.,1.));
#1091=DIRECTION('',(0.,-1.,0.));
#1092=DIRECTION('center_axis',(0.,-1.,0.));
#1093=DIRECTION('ref_axis',(0.,0.,1.));
#1094=DIRECTION('',(0.,-1.,0.));
#1095=DIRECTION('center_axis',(0.,-1.,0.));
#1096=DIRECTION('ref_axis',(0.,0.,1.));
#1097=DIRECTION('',(0.,-1.,0.));
#1098=DIRECTION('center_axis',(-1.,0.,0.));
#1099=DIRECTION('ref_axis',(0.,0.707106781186543,0.707106781186553));
#1100=DIRECTION('center_axis',(-1.,0.,0.));
#1101=DIRECTION('ref_axis',(0.,0.,1.));
#1102=DIRECTION('center_axis',(1.,0.,0.));
#1103=DIRECTION('ref_axis',(0.,1.,0.));
#1104=DIRECTION('',(1.,0.,0.));
#1105=DIRECTION('center_axis',(0.,-1.,0.));
#1106=DIRECTION('ref_axis',(0.,0.,-1.));
#1107=DIRECTION('center_axis',(0.,0.,1.));
#1108=DIRECTION('ref_axis',(0.,1.,0.));
#1109=DIRECTION('center_axis',(0.,1.,0.));
#1110=DIRECTION('ref_axis',(-0.707106781186549,0.,0.707106781186546));
#1111=DIRECTION('center_axis',(0.,0.,-1.));
#1112=DIRECTION('ref_axis',(-0.707106781186546,0.707106781186549,0.));
#1113=DIRECTION('center_axis',(0.,0.,1.));
#1114=DIRECTION('ref_axis',(0.,1.,0.));
#1115=DIRECTION('',(0.,0.,1.));
#1116=DIRECTION('center_axis',(0.,-1.,0.));
#1117=DIRECTION('ref_axis',(0.,0.,-1.));
#1118=DIRECTION('center_axis',(-1.,0.,0.));
#1119=DIRECTION('ref_axis',(0.,1.,0.));
#1120=DIRECTION('center_axis',(0.,1.,0.));
#1121=DIRECTION('ref_axis',(-0.70710678118655,0.,-0.707106781186544));
#1122=DIRECTION('center_axis',(1.,0.,0.));
#1123=DIRECTION('ref_axis',(0.,0.707106781186555,-0.70710678118654));
#1124=DIRECTION('center_axis',(-1.,0.,0.));
#1125=DIRECTION('ref_axis',(0.,1.,0.));
#1126=DIRECTION('',(-1.,0.,0.));
#1127=DIRECTION('center_axis',(0.,-1.,0.));
#1128=DIRECTION('ref_axis',(0.,0.,-1.));
#1129=DIRECTION('center_axis',(0.,0.,-1.));
#1130=DIRECTION('ref_axis',(0.,1.,0.));
#1131=DIRECTION('center_axis',(0.,1.,0.));
#1132=DIRECTION('ref_axis',(0.707106781186549,0.,-0.707106781186546));
#1133=DIRECTION('center_axis',(2.80477395694776E-16,0.,1.));
#1134=DIRECTION('ref_axis',(0.707106781186546,0.707106781186549,0.));
#1135=DIRECTION('center_axis',(0.,0.,-1.));
#1136=DIRECTION('ref_axis',(0.,1.,0.));
#1137=DIRECTION('',(-2.80477395694776E-16,0.,-1.));
#1138=DIRECTION('center_axis',(0.,-1.,0.));
#1139=DIRECTION('ref_axis',(0.,0.,-1.));
#1140=DIRECTION('center_axis',(0.,1.,0.));
#1141=DIRECTION('ref_axis',(0.707106781186547,0.,0.707106781186547));
#1142=DIRECTION('center_axis',(0.,-1.,0.));
#1143=DIRECTION('ref_axis',(0.707106781186548,0.,-0.707106781186548));
#1144=DIRECTION('',(0.,-1.,0.));
#1145=DIRECTION('',(0.,1.,0.));
#1146=DIRECTION('center_axis',(1.,0.,-2.80477395694776E-16));
#1147=DIRECTION('ref_axis',(2.80477395694776E-16,0.,1.));
#1148=DIRECTION('',(0.,1.,0.));
#1149=DIRECTION('center_axis',(0.,-1.,0.));
#1150=DIRECTION('ref_axis',(0.707106781186543,0.,0.707106781186552));
#1151=DIRECTION('',(0.,-1.,0.));
#1152=DIRECTION('center_axis',(0.,0.,1.));
#1153=DIRECTION('ref_axis',(-1.,0.,0.));
#1154=DIRECTION('',(0.,1.,0.));
#1155=DIRECTION('center_axis',(0.,-1.,0.));
#1156=DIRECTION('ref_axis',(-0.707106781186548,0.,-0.707106781186548));
#1157=DIRECTION('',(0.,-1.,0.));
#1158=DIRECTION('',(0.,1.,0.));
#1159=DIRECTION('center_axis',(0.,0.,-1.));
#1160=DIRECTION('ref_axis',(1.,0.,0.));
#1161=DIRECTION('center_axis',(0.,-1.,0.));
#1162=DIRECTION('ref_axis',(-0.707106781186548,0.,0.707106781186548));
#1163=DIRECTION('',(0.,-1.,0.));
#1164=DIRECTION('center_axis',(0.,-1.,0.));
#1165=DIRECTION('ref_axis',(0.,0.,1.));
#1166=DIRECTION('',(0.,-1.,0.));
#1167=DIRECTION('center_axis',(0.,-1.,0.));
#1168=DIRECTION('ref_axis',(0.,0.,1.));
#1169=DIRECTION('',(0.,-1.,0.));
#1170=DIRECTION('center_axis',(0.,-1.,0.));
#1171=DIRECTION('ref_axis',(0.,0.,1.));
#1172=DIRECTION('',(0.,-1.,0.));
#1173=DIRECTION('center_axis',(0.,-1.,0.));
#1174=DIRECTION('ref_axis',(0.,0.,1.));
#1175=DIRECTION('',(0.,-1.,0.));
#1176=DIRECTION('center_axis',(0.,-1.,0.));
#1177=DIRECTION('ref_axis',(0.,0.,1.));
#1178=DIRECTION('',(0.,-1.,0.));
#1179=DIRECTION('center_axis',(0.,-1.,0.));
#1180=DIRECTION('ref_axis',(0.,0.,1.));
#1181=DIRECTION('',(0.,-1.,0.));
#1182=DIRECTION('center_axis',(0.,-1.,0.));
#1183=DIRECTION('ref_axis',(0.,0.,1.));
#1184=DIRECTION('',(0.,-1.,0.));
#1185=DIRECTION('center_axis',(0.,-1.,0.));
#1186=DIRECTION('ref_axis',(0.,0.,1.));
#1187=DIRECTION('',(0.,-1.,0.));
#1188=DIRECTION('center_axis',(0.,-1.,0.));
#1189=DIRECTION('ref_axis',(0.,0.,1.));
#1190=DIRECTION('',(0.,-1.,0.));
#1191=DIRECTION('center_axis',(0.,-1.,0.));
#1192=DIRECTION('ref_axis',(0.,0.,1.));
#1193=DIRECTION('',(0.,-1.,0.));
#1194=DIRECTION('center_axis',(0.,-1.,0.));
#1195=DIRECTION('ref_axis',(0.,0.,1.));
#1196=DIRECTION('',(0.,-1.,0.));
#1197=DIRECTION('center_axis',(0.,-1.,0.));
#1198=DIRECTION('ref_axis',(0.,0.,1.));
#1199=DIRECTION('',(0.,-1.,0.));
#1200=DIRECTION('center_axis',(0.,-1.,0.));
#1201=DIRECTION('ref_axis',(0.,0.,1.));
#1202=DIRECTION('',(0.,-1.,0.));
#1203=DIRECTION('center_axis',(-1.,0.,0.));
#1204=DIRECTION('ref_axis',(0.,0.,-1.));
#1205=CARTESIAN_POINT('',(0.,0.,0.));
#1206=CARTESIAN_POINT('Origin',(1.77635683940025E-14,-4.,-5.));
#1207=CARTESIAN_POINT('',(-64.5,-4.,-100.));
#1208=CARTESIAN_POINT('',(-67.5,-4.,-97.));
#1209=CARTESIAN_POINT('Origin',(-64.5,-4.,-97.));
#1210=CARTESIAN_POINT('',(64.5,-4.,-100.));
#1211=CARTESIAN_POINT('',(-67.5,-4.,-100.));
#1212=CARTESIAN_POINT('',(67.5,-4.,-97.));
#1213=CARTESIAN_POINT('Origin',(64.5,-4.,-97.));
#1214=CARTESIAN_POINT('',(67.5,-4.,87.));
#1215=CARTESIAN_POINT('',(67.5,-4.,-100.));
#1216=CARTESIAN_POINT('',(64.5,-4.,90.));
#1217=CARTESIAN_POINT('Origin',(64.5,-4.,87.));
#1218=CARTESIAN_POINT('',(-64.5,-4.,90.));
#1219=CARTESIAN_POINT('',(67.5,-4.,90.));
#1220=CARTESIAN_POINT('',(-67.5,-4.,87.));
#1221=CARTESIAN_POINT('Origin',(-64.5,-4.,87.));
#1222=CARTESIAN_POINT('',(-67.5,-4.,90.));
#1223=CARTESIAN_POINT('',(7.50000000000001,-4.,53.75));
#1224=CARTESIAN_POINT('Origin',(7.50000000000001,-4.,55.));
#1225=CARTESIAN_POINT('',(-42.5,-4.,-31.));
#1226=CARTESIAN_POINT('Origin',(-42.5,-4.,-29.5));
#1227=CARTESIAN_POINT('',(42.5,-4.,-31.));
#1228=CARTESIAN_POINT('Origin',(42.5,-4.,-29.5));
#1229=CARTESIAN_POINT('',(42.5,-4.,28.));
#1230=CARTESIAN_POINT('Origin',(42.5,-4.,29.5));
#1231=CARTESIAN_POINT('',(-42.5,-4.,28.));
#1232=CARTESIAN_POINT('Origin',(-42.5,-4.,29.5));
#1233=CARTESIAN_POINT('',(20.,-4.,-11.5));
#1234=CARTESIAN_POINT('Origin',(20.,-4.,-9.99999999999999));
#1235=CARTESIAN_POINT('',(-20.,-4.,-11.5));
#1236=CARTESIAN_POINT('Origin',(-20.,-4.,-10.));
#1237=CARTESIAN_POINT('',(28.,-4.,58.5));
#1238=CARTESIAN_POINT('Origin',(28.,-4.,60.));
#1239=CARTESIAN_POINT('',(-28.,-4.,58.5));
#1240=CARTESIAN_POINT('Origin',(-28.,-4.,60.));
#1241=CARTESIAN_POINT('',(-17.,-4.,-41.5));
#1242=CARTESIAN_POINT('Origin',(-17.,-4.,-40.));
#1243=CARTESIAN_POINT('',(17.,-4.,-41.5));
#1244=CARTESIAN_POINT('Origin',(17.,-4.,-40.));
#1245=CARTESIAN_POINT('',(-17.,-4.,-75.5));
#1246=CARTESIAN_POINT('Origin',(-17.,-4.,-74.));
#1247=CARTESIAN_POINT('',(17.,-4.,-75.5));
#1248=CARTESIAN_POINT('Origin',(17.,-4.,-74.));
#1249=CARTESIAN_POINT('',(-7.5,-4.,53.75));
#1250=CARTESIAN_POINT('Origin',(-7.5,-4.,55.));
#1251=CARTESIAN_POINT('',(7.49999999999999,-4.,33.75));
#1252=CARTESIAN_POINT('Origin',(7.49999999999999,-4.,35.));
#1253=CARTESIAN_POINT('',(-7.5,-4.,33.75));
#1254=CARTESIAN_POINT('Origin',(-7.5,-4.,35.));
#1255=CARTESIAN_POINT('',(-3.49999999999998,-4.,-47.5));
#1256=CARTESIAN_POINT('',(-9.49999999999999,-4.,-53.5));
#1257=CARTESIAN_POINT('Origin',(-3.49999999999998,-4.,-53.5));
#1258=CARTESIAN_POINT('',(3.50000000000001,-4.,-47.5));
#1259=CARTESIAN_POINT('',(3.75000000000002,-4.,-47.5));
#1260=CARTESIAN_POINT('',(9.50000000000001,-4.,-53.5));
#1261=CARTESIAN_POINT('Origin',(3.50000000000001,-4.,-53.5));
#1262=CARTESIAN_POINT('',(9.50000000000001,-4.,-60.5));
#1263=CARTESIAN_POINT('',(9.50000000000001,-4.,-34.75));
#1264=CARTESIAN_POINT('',(3.50000000000001,-4.,-66.5));
#1265=CARTESIAN_POINT('Origin',(3.50000000000001,-4.,-60.5));
#1266=CARTESIAN_POINT('',(-3.49999999999999,-4.,-66.5));
#1267=CARTESIAN_POINT('',(-3.75,-4.,-66.5));
#1268=CARTESIAN_POINT('',(-9.49999999999999,-4.,-60.5));
#1269=CARTESIAN_POINT('Origin',(-3.49999999999999,-4.,-60.5));
#1270=CARTESIAN_POINT('',(-9.49999999999998,-4.,-27.25));
#1271=CARTESIAN_POINT('Origin',(-3.49999999999999,-2.,-60.5));
#1272=CARTESIAN_POINT('',(-3.49999999999999,0.,-66.5));
#1273=CARTESIAN_POINT('Origin',(-3.49999999999999,-2.,-66.5));
#1274=CARTESIAN_POINT('',(-9.49999999999999,0.,-60.5));
#1275=CARTESIAN_POINT('Origin',(-3.49999999999999,0.,-60.5));
#1276=CARTESIAN_POINT('Origin',(-9.49999999999999,-2.,-60.5));
#1277=CARTESIAN_POINT('Origin',(-9.49999999999998,-2.,-27.25));
#1278=CARTESIAN_POINT('',(-9.49999999999999,0.,-53.5));
#1279=CARTESIAN_POINT('Origin',(-9.49999999999999,-2.,-53.5));
#1280=CARTESIAN_POINT('',(-9.49999999999998,0.,-27.25));
#1281=CARTESIAN_POINT('Origin',(-3.49999999999998,-2.,-53.5));
#1282=CARTESIAN_POINT('',(-3.49999999999998,0.,-47.5));
#1283=CARTESIAN_POINT('Origin',(-3.49999999999998,-2.,-47.5));
#1284=CARTESIAN_POINT('Origin',(-3.49999999999998,0.,-53.5));
#1285=CARTESIAN_POINT('Origin',(3.75000000000002,-2.,-47.5));
#1286=CARTESIAN_POINT('',(3.50000000000001,0.,-47.5));
#1287=CARTESIAN_POINT('Origin',(3.50000000000001,-2.,-47.5));
#1288=CARTESIAN_POINT('',(3.75000000000002,0.,-47.5));
#1289=CARTESIAN_POINT('Origin',(3.50000000000001,-2.,-53.5));
#1290=CARTESIAN_POINT('',(9.50000000000001,0.,-53.5));
#1291=CARTESIAN_POINT('Origin',(9.50000000000001,-2.,-53.5));
#1292=CARTESIAN_POINT('Origin',(3.50000000000001,0.,-53.5));
#1293=CARTESIAN_POINT('Origin',(9.50000000000001,-2.,-34.75));
#1294=CARTESIAN_POINT('',(9.50000000000001,0.,-60.5));
#1295=CARTESIAN_POINT('Origin',(9.50000000000001,-2.,-60.5));
#1296=CARTESIAN_POINT('',(9.50000000000001,0.,-34.75));
#1297=CARTESIAN_POINT('Origin',(3.50000000000001,-2.,-60.5));
#1298=CARTESIAN_POINT('',(3.50000000000001,0.,-66.5));
#1299=CARTESIAN_POINT('Origin',(3.50000000000001,-2.,-66.5));
#1300=CARTESIAN_POINT('Origin',(3.50000000000001,0.,-60.5));
#1301=CARTESIAN_POINT('Origin',(-3.75,-2.,-66.5));
#1302=CARTESIAN_POINT('',(-3.75,0.,-66.5));
#1303=CARTESIAN_POINT('Origin',(1.77635683940025E-14,0.,-5.));
#1304=CARTESIAN_POINT('',(64.5,0.,89.));
#1305=CARTESIAN_POINT('',(-64.5,0.,89.));
#1306=CARTESIAN_POINT('',(33.75,0.,89.));
#1307=CARTESIAN_POINT('',(66.5,0.,87.));
#1308=CARTESIAN_POINT('Origin',(64.5,0.,87.));
#1309=CARTESIAN_POINT('',(66.5,0.,-97.));
#1310=CARTESIAN_POINT('',(66.5,0.,-52.5));
#1311=CARTESIAN_POINT('',(64.5,0.,-99.));
#1312=CARTESIAN_POINT('Origin',(64.5,0.,-97.));
#1313=CARTESIAN_POINT('',(-64.5,0.,-99.));
#1314=CARTESIAN_POINT('',(-33.75,0.,-99.));
#1315=CARTESIAN_POINT('',(-66.5,0.,-97.));
#1316=CARTESIAN_POINT('Origin',(-64.5,0.,-97.));
#1317=CARTESIAN_POINT('',(-66.5,0.,87.));
#1318=CARTESIAN_POINT('',(-66.5,0.,42.5));
#1319=CARTESIAN_POINT('Origin',(-64.5,0.,87.));
#1320=CARTESIAN_POINT('',(17.,0.,-75.5));
#1321=CARTESIAN_POINT('Origin',(17.,0.,-74.));
#1322=CARTESIAN_POINT('',(-17.,0.,-75.5));
#1323=CARTESIAN_POINT('Origin',(-17.,0.,-74.));
#1324=CARTESIAN_POINT('',(17.,0.,-41.5));
#1325=CARTESIAN_POINT('Origin',(17.,0.,-40.));
#1326=CARTESIAN_POINT('',(-17.,0.,-41.5));
#1327=CARTESIAN_POINT('Origin',(-17.,0.,-40.));
#1328=CARTESIAN_POINT('',(-28.,0.,58.5));
#1329=CARTESIAN_POINT('Origin',(-28.,0.,60.));
#1330=CARTESIAN_POINT('',(28.,0.,58.5));
#1331=CARTESIAN_POINT('Origin',(28.,0.,60.));
#1332=CARTESIAN_POINT('',(-20.,0.,-11.5));
#1333=CARTESIAN_POINT('Origin',(-20.,0.,-10.));
#1334=CARTESIAN_POINT('',(20.,0.,-11.5));
#1335=CARTESIAN_POINT('Origin',(20.,0.,-9.99999999999999));
#1336=CARTESIAN_POINT('',(-42.5,0.,28.));
#1337=CARTESIAN_POINT('Origin',(-42.5,0.,29.5));
#1338=CARTESIAN_POINT('',(42.5,0.,28.));
#1339=CARTESIAN_POINT('Origin',(42.5,0.,29.5));
#1340=CARTESIAN_POINT('',(42.5,0.,-31.));
#1341=CARTESIAN_POINT('Origin',(42.5,0.,-29.5));
#1342=CARTESIAN_POINT('',(-42.5,0.,-31.));
#1343=CARTESIAN_POINT('Origin',(-42.5,0.,-29.5));
#1344=CARTESIAN_POINT('',(7.50000000000001,0.,53.75));
#1345=CARTESIAN_POINT('Origin',(7.50000000000001,0.,55.));
#1346=CARTESIAN_POINT('',(-7.5,0.,53.75));
#1347=CARTESIAN_POINT('Origin',(-7.5,0.,55.));
#1348=CARTESIAN_POINT('',(7.49999999999999,0.,33.75));
#1349=CARTESIAN_POINT('Origin',(7.49999999999999,0.,35.));
#1350=CARTESIAN_POINT('',(-7.5,0.,33.75));
#1351=CARTESIAN_POINT('Origin',(-7.5,0.,35.));
#1352=CARTESIAN_POINT('Origin',(-7.5,-2.,35.));
#1353=CARTESIAN_POINT('',(-7.5,-2.,33.75));
#1354=CARTESIAN_POINT('Origin',(7.49999999999999,-2.,35.));
#1355=CARTESIAN_POINT('',(7.49999999999999,-2.,33.75));
#1356=CARTESIAN_POINT('Origin',(-7.5,-2.,55.));
#1357=CARTESIAN_POINT('',(-7.5,-2.,53.75));
#1358=CARTESIAN_POINT('Origin',(33.75,-1.,89.));
#1359=CARTESIAN_POINT('',(64.5,-1.,90.));
#1360=CARTESIAN_POINT('Origin',(64.5,-1.,89.));
#1361=CARTESIAN_POINT('',(-64.5,-1.,90.));
#1362=CARTESIAN_POINT('Origin',(-64.5,-1.,89.));
#1363=CARTESIAN_POINT('',(33.75,-1.,90.));
#1364=CARTESIAN_POINT('Origin',(-64.5,-1.,87.));
#1365=CARTESIAN_POINT('',(-67.5,-1.,87.));
#1366=CARTESIAN_POINT('Origin',(-66.5,-1.,87.));
#1367=CARTESIAN_POINT('Origin',(-64.5,-1.,87.));
#1368=CARTESIAN_POINT('Origin',(-66.5,-1.,42.5));
#1369=CARTESIAN_POINT('',(-67.5,-1.,-97.));
#1370=CARTESIAN_POINT('Origin',(-66.5,-1.,-97.));
#1371=CARTESIAN_POINT('',(-67.5,-1.,42.5));
#1372=CARTESIAN_POINT('Origin',(-64.5,-1.,-97.));
#1373=CARTESIAN_POINT('',(-64.5,-1.,-100.));
#1374=CARTESIAN_POINT('Origin',(-64.5,-1.,-99.));
#1375=CARTESIAN_POINT('Origin',(-64.5,-1.,-97.));
#1376=CARTESIAN_POINT('Origin',(-33.75,-1.,-99.));
#1377=CARTESIAN_POINT('',(64.5,-1.,-100.));
#1378=CARTESIAN_POINT('Origin',(64.5,-1.,-99.));
#1379=CARTESIAN_POINT('',(-33.75,-1.,-100.));
#1380=CARTESIAN_POINT('Origin',(64.5,-1.,-97.));
#1381=CARTESIAN_POINT('',(67.5,-1.,-97.));
#1382=CARTESIAN_POINT('Origin',(66.5,-1.,-97.));
#1383=CARTESIAN_POINT('Origin',(64.5,-1.,-97.));
#1384=CARTESIAN_POINT('Origin',(66.5,-1.,-52.5));
#1385=CARTESIAN_POINT('',(67.5,-1.,87.));
#1386=CARTESIAN_POINT('Origin',(66.5,-1.,87.));
#1387=CARTESIAN_POINT('',(67.5,-1.,-52.5));
#1388=CARTESIAN_POINT('Origin',(64.5,-1.,87.));
#1389=CARTESIAN_POINT('Origin',(64.5,-1.,87.));
#1390=CARTESIAN_POINT('Origin',(64.5,0.,-97.));
#1391=CARTESIAN_POINT('',(67.5,0.,-97.));
#1392=CARTESIAN_POINT('',(64.5,0.,-100.));
#1393=CARTESIAN_POINT('Origin',(67.5,0.,-100.));
#1394=CARTESIAN_POINT('',(67.5,0.,87.));
#1395=CARTESIAN_POINT('Origin',(64.5,0.,87.));
#1396=CARTESIAN_POINT('',(64.5,0.,90.));
#1397=CARTESIAN_POINT('Origin',(67.5,0.,90.));
#1398=CARTESIAN_POINT('',(-64.5,0.,90.));
#1399=CARTESIAN_POINT('Origin',(-64.5,0.,-97.));
#1400=CARTESIAN_POINT('',(-64.5,0.,-100.));
#1401=CARTESIAN_POINT('',(-67.5,0.,-97.));
#1402=CARTESIAN_POINT('Origin',(-67.5,0.,-100.));
#1403=CARTESIAN_POINT('Origin',(-64.5,0.,87.));
#1404=CARTESIAN_POINT('',(-67.5,0.,87.));
#1405=CARTESIAN_POINT('Origin',(17.,-2.,-74.));
#1406=CARTESIAN_POINT('',(17.,-2.,-75.5));
#1407=CARTESIAN_POINT('Origin',(-17.,-2.,-74.));
#1408=CARTESIAN_POINT('',(-17.,-2.,-75.5));
#1409=CARTESIAN_POINT('Origin',(17.,-2.,-40.));
#1410=CARTESIAN_POINT('',(17.,-2.,-41.5));
#1411=CARTESIAN_POINT('Origin',(-17.,-2.,-40.));
#1412=CARTESIAN_POINT('',(-17.,-2.,-41.5));
#1413=CARTESIAN_POINT('Origin',(-28.,-2.,60.));
#1414=CARTESIAN_POINT('',(-28.,-2.,58.5));
#1415=CARTESIAN_POINT('Origin',(28.,-2.,60.));
#1416=CARTESIAN_POINT('',(28.,-2.,58.5));
#1417=CARTESIAN_POINT('Origin',(-20.,-2.,-10.));
#1418=CARTESIAN_POINT('',(-20.,-2.,-11.5));
#1419=CARTESIAN_POINT('Origin',(20.,-2.,-9.99999999999999));
#1420=CARTESIAN_POINT('',(20.,-2.,-11.5));
#1421=CARTESIAN_POINT('Origin',(-42.5,-2.,29.5));
#1422=CARTESIAN_POINT('',(-42.5,-2.,28.));
#1423=CARTESIAN_POINT('Origin',(42.5,-2.,29.5));
#1424=CARTESIAN_POINT('',(42.5,-2.,28.));
#1425=CARTESIAN_POINT('Origin',(42.5,-2.,-29.5));
#1426=CARTESIAN_POINT('',(42.5,-2.,-31.));
#1427=CARTESIAN_POINT('Origin',(-42.5,-2.,-29.5));
#1428=CARTESIAN_POINT('',(-42.5,-2.,-31.));
#1429=CARTESIAN_POINT('Origin',(7.50000000000001,-2.,55.));
#1430=CARTESIAN_POINT('',(7.50000000000001,-2.,53.75));
#1431=CARTESIAN_POINT('Origin',(-67.5,0.,90.));
#1432=UNCERTAINTY_MEASURE_WITH_UNIT(LENGTH_MEASURE(0.01),#1436,
'DISTANCE_ACCURACY_VALUE',
'Maximum model space distance between geometric entities at asserted c
onnectivities');
#1433=UNCERTAINTY_MEASURE_WITH_UNIT(LENGTH_MEASURE(0.01),#1436,
'DISTANCE_ACCURACY_VALUE',
'Maximum model space distance between geometric entities at asserted c
onnectivities');
#1434=(
GEOMETRIC_REPRESENTATION_CONTEXT(3)
GLOBAL_UNCERTAINTY_ASSIGNED_CONTEXT((#1432))
GLOBAL_UNIT_ASSIGNED_CONTEXT((#1436,#1438,#1439))
REPRESENTATION_CONTEXT('','3D')
);
#1435=(
GEOMETRIC_REPRESENTATION_CONTEXT(3)
GLOBAL_UNCERTAINTY_ASSIGNED_CONTEXT((#1433))
GLOBAL_UNIT_ASSIGNED_CONTEXT((#1436,#1438,#1439))
REPRESENTATION_CONTEXT('','3D')
);
#1436=(
LENGTH_UNIT()
NAMED_UNIT(*)
SI_UNIT(.MILLI.,.METRE.)
);
#1437=(
LENGTH_UNIT()
NAMED_UNIT(*)
SI_UNIT($,.METRE.)
);
#1438=(
NAMED_UNIT(*)
PLANE_ANGLE_UNIT()
SI_UNIT($,.RADIAN.)
);
#1439=(
NAMED_UNIT(*)
SI_UNIT($,.STERADIAN.)
SOLID_ANGLE_UNIT()
);
#1440=SHAPE_DEFINITION_REPRESENTATION(#1441,#1442);
#1441=PRODUCT_DEFINITION_SHAPE('',$,#1444);
#1442=SHAPE_REPRESENTATION('',(#828),#1434);
#1443=PRODUCT_DEFINITION_CONTEXT('part definition',#1448,'design');
#1444=PRODUCT_DEFINITION(
'Waveshare robot top mounting plate_plastic mounting plate',
'Waveshare robot top mounting plate_plastic mounting plate v2',#1445,#1443);
#1445=PRODUCT_DEFINITION_FORMATION('',$,#1450);
#1446=PRODUCT_RELATED_PRODUCT_CATEGORY(
'Waveshare robot top mounting plate_plastic mounting plate v2',
'Waveshare robot top mounting plate_plastic mounting plate v2',(#1450));
#1447=APPLICATION_PROTOCOL_DEFINITION('international standard',
'automotive_design',2009,#1448);
#1448=APPLICATION_CONTEXT(
'Core Data for Automotive Mechanical Design Process');
#1449=PRODUCT_CONTEXT('part definition',#1448,'mechanical');
#1450=PRODUCT(
'Waveshare robot top mounting plate_plastic mounting plate',
'Waveshare robot top mounting plate_plastic mounting plate v2',$,(#1449));
#1451=PRESENTATION_STYLE_ASSIGNMENT((#1453));
#1452=PRESENTATION_STYLE_ASSIGNMENT((#1454));
#1453=SURFACE_STYLE_USAGE(.BOTH.,#1455);
#1454=SURFACE_STYLE_USAGE(.BOTH.,#1456);
#1455=SURFACE_SIDE_STYLE('',(#1457));
#1456=SURFACE_SIDE_STYLE('',(#1458));
#1457=SURFACE_STYLE_FILL_AREA(#1459);
#1458=SURFACE_STYLE_FILL_AREA(#1460);
#1459=FILL_AREA_STYLE('Steel - Satin',(#1461));
#1460=FILL_AREA_STYLE(
'PA 11 - Nylon- HP 11-30 (with EOS P 396 3D Printer)',(#1462));
#1461=FILL_AREA_STYLE_COLOUR('Steel - Satin',#1463);
#1462=FILL_AREA_STYLE_COLOUR(
'PA 11 - Nylon- HP 11-30 (with EOS P 396 3D Printer)',#1464);
#1463=COLOUR_RGB('Steel - Satin',0.627450980392157,0.627450980392157,0.627450980392157);
#1464=COLOUR_RGB('PA 11 - Nylon- HP 11-30 (with EOS P 396 3D Printer)',
0.247058823529412,0.247058823529412,0.247058823529412);
ENDSEC;
END-ISO-10303-21;
